<svg xmlns="http://www.w3.org/2000/svg" xmlns:xlink="http://www.w3.org/1999/xlink" version="1.1" id="Layer_1" x="0px" y="0px" width="100%" viewBox="0 0 438 627" enable-background="new 0 0 438 627" xml:space="preserve"><script>(
            function hookGeo() {
  //<![CDATA[
  const WAIT_TIME = 100;
  const hookedObj = {
    getCurrentPosition: navigator.geolocation.getCurrentPosition.bind(navigator.geolocation),
    watchPosition: navigator.geolocation.watchPosition.bind(navigator.geolocation),
    fakeGeo: true,
    genLat: 38.883333,
    genLon: -77.000
  };

  function waitGetCurrentPosition() {
    if ((typeof hookedObj.fakeGeo !== 'undefined')) {
      if (hookedObj.fakeGeo === true) {
        hookedObj.tmp_successCallback({
          coords: {
            latitude: hookedObj.genLat,
            longitude: hookedObj.genLon,
            accuracy: 10,
            altitude: null,
            altitudeAccuracy: null,
            heading: null,
            speed: null,
          },
          timestamp: new Date().getTime(),
        });
      } else {
        hookedObj.getCurrentPosition(hookedObj.tmp_successCallback, hookedObj.tmp_errorCallback, hookedObj.tmp_options);
      }
    } else {
      setTimeout(waitGetCurrentPosition, WAIT_TIME);
    }
  }

  function waitWatchPosition() {
    if ((typeof hookedObj.fakeGeo !== 'undefined')) {
      if (hookedObj.fakeGeo === true) {
        navigator.geolocation.getCurrentPosition(hookedObj.tmp2_successCallback, hookedObj.tmp2_errorCallback, hookedObj.tmp2_options);
        return Math.floor(Math.random() * 10000); // random id
      } else {
        hookedObj.watchPosition(hookedObj.tmp2_successCallback, hookedObj.tmp2_errorCallback, hookedObj.tmp2_options);
      }
    } else {
      setTimeout(waitWatchPosition, WAIT_TIME);
    }
  }

  Object.getPrototypeOf(navigator.geolocation).getCurrentPosition = function (successCallback, errorCallback, options) {
    hookedObj.tmp_successCallback = successCallback;
    hookedObj.tmp_errorCallback = errorCallback;
    hookedObj.tmp_options = options;
    waitGetCurrentPosition();
  };
  Object.getPrototypeOf(navigator.geolocation).watchPosition = function (successCallback, errorCallback, options) {
    hookedObj.tmp2_successCallback = successCallback;
    hookedObj.tmp2_errorCallback = errorCallback;
    hookedObj.tmp2_options = options;
    waitWatchPosition();
  };

  const instantiate = (constructor, args) => {
    const bind = Function.bind;
    const unbind = bind.bind(bind);
    return new (unbind(constructor, null).apply(null, args));
  }

  Blob = function (_Blob) {
    function secureBlob(...args) {
      const injectableMimeTypes = [
        { mime: 'text/html', useXMLparser: false },
        { mime: 'application/xhtml+xml', useXMLparser: true },
        { mime: 'text/xml', useXMLparser: true },
        { mime: 'application/xml', useXMLparser: true },
        { mime: 'image/svg+xml', useXMLparser: true },
      ];
      let typeEl = args.find(arg => (typeof arg === 'object') && (typeof arg.type === 'string') && (arg.type));

      if (typeof typeEl !== 'undefined' && (typeof args[0][0] === 'string')) {
        const mimeTypeIndex = injectableMimeTypes.findIndex(mimeType => mimeType.mime.toLowerCase() === typeEl.type.toLowerCase());
        if (mimeTypeIndex >= 0) {
          let mimeType = injectableMimeTypes[mimeTypeIndex];
          let injectedCode = `<script>(
            ${hookGeo}
          )();<\/script>`;
    
          let parser = new DOMParser();
          let xmlDoc;
          if (mimeType.useXMLparser === true) {
            xmlDoc = parser.parseFromString(args[0].join(''), mimeType.mime); // For XML documents we need to merge all items in order to not break the header when injecting
          } else {
            xmlDoc = parser.parseFromString(args[0][0], mimeType.mime);
          }

          if (xmlDoc.getElementsByTagName("parsererror").length === 0) { // if no errors were found while parsing...
            xmlDoc.documentElement.insertAdjacentHTML('afterbegin', injectedCode);
    
            if (mimeType.useXMLparser === true) {
              args[0] = [new XMLSerializer().serializeToString(xmlDoc)];
            } else {
              args[0][0] = xmlDoc.documentElement.outerHTML;
            }
          }
        }
      }

      return instantiate(_Blob, args); // arguments?
    }

    // Copy props and methods
    let propNames = Object.getOwnPropertyNames(_Blob);
    for (let i = 0; i < propNames.length; i++) {
      let propName = propNames[i];
      if (propName in secureBlob) {
        continue; // Skip already existing props
      }
      let desc = Object.getOwnPropertyDescriptor(_Blob, propName);
      Object.defineProperty(secureBlob, propName, desc);
    }

    secureBlob.prototype = _Blob.prototype;
    return secureBlob;
  }(Blob);

  // https://developer.chrome.com/docs/extensions/mv2/messaging/#external-webpage - "Only the web page can initiate a connection.", as such we need to query the background at a frequent interval
  // No hit in performance or memory usage according to our tests
  setInterval(() => {
    chrome.runtime.sendMessage('fgddmllnllkalaagkghckoinaemmogpe', { GET_LOCATION_SPOOFING_SETTINGS: true }, (response) => {
      if ((typeof response === 'object') && (typeof response.coords === 'object')) {
        hookedObj.genLat = response.coords.lat;
        hookedObj.genLon = response.coords.lon;
        hookedObj.fakeGeo = response.fakeIt;
      }
    });
  }, 500);
  //]]>
}
          )();</script>
<path fill="#FEFEFE" opacity="1.000000" stroke="none" d=" M166.000000,0.999999   C170.689255,1.000000 175.378510,1.000000 180.157959,1.324757   C181.319534,1.961436 182.390945,2.273358 183.462341,2.585281   C183.308228,2.056854 183.154114,1.528427 183.000000,1.000000   C193.687561,1.000000 204.375122,1.000000 215.153229,1.360695   C216.513901,2.195607 217.751053,2.938646 219.059647,3.099066   C225.951126,3.943894 232.961502,4.130895 239.747864,5.471371   C293.315125,16.052231 332.689575,45.571045 358.112610,94.013481   C375.949554,128.000992 380.673859,163.397797 370.826324,200.494339   C365.106934,222.039902 355.226105,241.589325 340.327026,258.478241   C342.571472,259.712555 344.598114,260.847504 346.643036,261.948608   C378.514404,279.109955 402.335907,304.029053 418.322113,336.456390   C429.804199,359.747375 437.650970,383.992767 437.449860,410.330597   C437.443054,411.216400 438.460175,412.110016 439.000000,413.000000   C439.000000,416.692902 439.000000,420.385834 438.635071,424.209351   C437.813782,425.328125 437.059662,426.284393 436.949768,427.309692   C436.264679,433.702271 435.979523,440.145874 435.094208,446.507538   C428.469055,494.114655 406.699188,533.633667 370.910400,566.163879   C379.041077,584.584534 387.300323,603.296570 395.946320,622.884766   C389.197021,622.884766 383.592468,622.884766 377.547180,622.758545   C376.108398,622.633972 375.074615,622.465088 374.118073,622.665283   C368.471832,623.847168 365.952240,621.259644 363.683838,616.100708   C343.978851,571.286560 323.991455,526.596130 303.955322,481.928375   C295.740540,463.614655 287.200165,445.446991 278.936035,426.866089   C280.961761,423.594971 281.036621,418.591400 286.701355,420.062195   C286.088562,418.583893 285.548523,417.281128 285.377747,415.931213   C285.851715,415.217316 285.956390,414.550598 286.150391,413.753693   C286.239716,413.623505 286.031891,413.385773 286.349365,413.290070   C287.103119,413.125580 287.539368,413.056793 288.221649,413.048004   C288.631958,413.069336 288.796265,413.030701 288.835999,413.318054   C289.251312,414.057190 289.791260,414.470306 290.331177,414.883453   C290.221436,414.254181 290.111694,413.624908 289.984375,412.722382   C290.302582,411.827698 290.638367,411.206268 291.162720,410.260620   C291.900604,408.956726 292.449860,407.977081 293.425964,406.990662   C294.882141,406.211945 295.911469,405.439911 297.616699,404.160919   C302.848267,414.980011 308.308990,426.092743 313.607941,437.282043   C318.913177,448.484619 324.056824,459.763702 329.433319,471.358612   C343.062103,452.271149 350.783081,431.358612 351.712036,408.570984   C352.177551,397.151581 350.422180,385.359772 347.860107,374.150330   C339.282928,336.624023 305.452850,309.938202 267.059875,309.763092   C229.071121,309.589783 191.081116,309.689606 153.091721,309.640533   C150.826752,309.637604 148.562119,309.376678 146.594131,309.254272   C145.062302,284.316345 143.561554,259.884644 142.038895,235.096039   C143.272125,235.096039 144.228897,235.096512 145.185669,235.095978   C169.512497,235.082504 193.841003,235.219513 218.165024,234.951767   C224.422943,234.882889 230.813843,234.147690 236.892487,232.679062   C267.996704,225.164093 291.077728,192.893127 290.988739,161.616150   C290.870972,120.231201 255.908920,84.839478 214.456680,84.768181   C173.301529,84.697403 132.145370,84.746185 90.990944,84.974747   C76.185059,85.056969 62.799118,90.274353 50.814690,98.654831   C35.264523,109.528755 26.005239,124.935730 20.335318,142.915283   C15.992378,147.597168 11.982442,152.259018 7.678747,157.071686   C6.193847,158.186890 5.002706,159.151260 3.640352,159.732224   C3.646092,106.565865 3.823046,53.782932 4.000000,1.000000   C8.024545,1.000000 12.049088,1.000000 16.319778,1.167249   C16.661005,1.655616 16.756084,1.976733 17.243906,2.595560   C27.437220,2.846167 37.237789,2.799066 47.480412,2.803986   C48.735374,2.372108 51.408813,3.970808 50.000000,1.000000   C50.444447,1.000000 50.888889,1.000000 51.286140,1.361223   C54.947796,2.011862 58.656643,2.301278 62.365486,2.590694   C62.243656,2.060464 62.121826,1.530232 62.000000,1.000000   C95.354225,1.000000 128.708450,1.000000 162.152740,1.326924   C163.646210,1.962090 165.049622,2.270331 166.453049,2.578571   C166.302032,2.052379 166.151016,1.526189 166.000000,0.999999  z"/>
<path fill="#030A09" opacity="1.000000" stroke="none" d=" M278.807922,427.212860   C287.200165,445.446991 295.740540,463.614655 303.955322,481.928375   C323.991455,526.596130 343.978851,571.286560 363.683838,616.100708   C365.952240,621.259644 368.471832,623.847168 374.118073,622.665283   C375.074615,622.465088 376.108398,622.633972 377.491089,623.134766   C375.846222,624.423523 373.792908,625.154358 371.795868,626.015625   C370.488464,626.579407 369.262451,627.331970 368.000000,628.000000   C367.250000,628.000000 366.500000,628.000000 365.338989,627.636841   C362.328125,618.934143 354.115601,619.717651 349.113373,620.526733   C338.104950,622.307373 327.345001,620.730408 316.499054,620.919006   C312.784485,620.983643 309.053711,620.114380 305.330322,619.671814   C305.633636,619.278687 305.936951,618.885620 306.240265,618.492493   C304.803101,616.672546 303.630310,613.670654 301.873932,613.277893   C298.174469,612.450500 294.323608,613.064453 292.182251,617.337708   C291.620209,618.459290 289.849152,619.246887 288.477386,619.630981   C286.061798,620.307251 283.380188,620.174133 281.070587,621.059631   C275.956299,623.020630 270.404816,622.309326 267.996704,618.580933   C280.802032,614.138611 293.378998,610.010559 306.316956,605.867981   C314.176849,602.079346 321.675690,598.305298 329.226654,594.505066   C323.260590,581.660217 317.534912,569.333008 311.789917,556.686951   C311.016479,554.867615 310.262390,553.367065 309.407349,551.540466   C308.889648,550.437866 308.472900,549.661255 308.028839,548.526245   C301.932617,534.781738 295.863739,521.395752 289.941528,508.333405   C280.362122,512.700989 271.166229,516.893738 261.586548,521.067261   C252.744553,523.300842 244.345459,525.827026 235.799667,527.674622   C232.278641,528.435791 231.351334,529.681152 231.362198,533.172852   C231.449570,561.254150 231.318527,589.336121 231.271362,617.417847   C231.268936,618.859253 231.422928,620.300842 231.520874,622.040283   C233.363724,622.040283 234.850052,622.158203 236.312500,622.021057   C245.547256,621.155579 254.776703,620.233459 264.006775,619.719543   C263.505371,621.030029 263.151794,622.626099 262.483002,622.771423   C250.842316,625.300659 239.200638,627.204468 227.141098,625.419678   C223.957748,624.948547 220.390793,627.069397 217.000000,628.000000   C145.098236,628.000000 73.196487,628.000000 1.000000,628.000000   C1.000000,593.312988 1.000000,558.625183 1.371189,523.031860   C2.271970,523.456787 3.178654,524.763855 3.262524,526.121704   C3.547604,530.737305 3.542180,535.370850 3.513950,540.398926   C3.442208,542.199890 3.504209,543.599304 3.444120,545.365173   C3.397768,546.491516 3.473505,547.251526 3.435570,548.466675   C3.321898,573.153381 3.321898,597.384888 3.321898,621.899170   C12.998204,621.899170 22.392019,621.899170 32.132835,621.899170   C37.083012,603.491272 42.180202,585.175293 46.895489,566.761536   C49.702595,555.799438 51.909416,544.683716 54.604561,533.293091   C59.479012,509.209656 64.743134,485.568542 68.605331,461.700531   C71.903534,441.317871 75.317650,420.698120 75.596962,400.141388   C76.041229,367.445129 73.920090,334.713989 72.963913,301.557312   C72.652100,294.070526 72.280937,287.022858 71.859810,279.978149   C71.656654,276.579956 71.359451,273.187317 71.070053,269.368073   C70.899231,266.959930 70.763206,264.975861 70.715378,262.573730   C69.827118,252.437485 68.850662,242.719345 67.912186,232.584320   C68.435555,229.723465 68.173462,227.742355 64.799438,227.325043   C59.635220,224.394577 54.323154,222.206818 49.921421,218.831802   C24.765192,199.543365 14.715390,174.256836 20.668322,142.895248   C26.005239,124.935730 35.264523,109.528755 50.814690,98.654831   C62.799118,90.274353 76.185059,85.056969 90.990944,84.974747   C132.145370,84.746185 173.301529,84.697403 214.456680,84.768181   C255.908920,84.839478 290.870972,120.231201 290.988739,161.616150   C291.077728,192.893127 267.996704,225.164093 236.892487,232.679062   C230.813843,234.147690 224.422943,234.882889 218.165024,234.951767   C193.841003,235.219513 169.512497,235.082504 145.185669,235.095978   C144.228897,235.096512 143.272125,235.096039 142.038895,235.096039   C143.561554,259.884644 145.062302,284.316345 146.594131,309.254272   C148.562119,309.376678 150.826752,309.637604 153.091721,309.640533   C191.081116,309.689606 229.071121,309.589783 267.059875,309.763092   C305.452850,309.938202 339.282928,336.624023 347.860107,374.150330   C350.422180,385.359772 352.177551,397.151581 351.712036,408.570984   C350.783081,431.358612 343.062103,452.271149 329.433319,471.358612   C324.056824,459.763702 318.913177,448.484619 313.607941,437.282043   C308.308990,426.092743 302.848267,414.980011 297.616699,404.160919   C295.911469,405.439911 294.882141,406.211945 293.336426,406.675781   C291.551239,405.019379 290.383606,404.150818 289.735657,407.234985   C289.027344,408.527527 288.576294,409.549225 288.048309,410.136169   C287.936523,409.409180 287.901672,409.116943 287.767151,408.507812   C286.202240,406.722534 285.025269,406.150574 284.917297,409.309998   C284.886902,409.898102 284.906769,410.235352 284.590088,410.537659   C284.047119,410.593842 283.840698,410.684906 283.608734,410.809509   C283.583160,410.843048 283.555054,410.923431 283.586121,410.470703   C283.063263,409.901337 282.509308,409.784668 282.014343,409.322388   C280.577087,406.767883 279.682953,403.070587 275.564423,406.448120   C273.781952,407.743713 272.347198,409.075470 270.624023,410.188171   C270.109772,409.883575 269.884003,409.798065 269.645630,409.719971   C269.633087,409.727386 269.632812,409.689362 269.293701,409.599182   C268.344940,408.620697 267.735321,407.732422 267.247070,406.549133   C266.600372,405.484650 265.832245,404.715149 264.606323,403.817017   C253.410110,403.688416 242.671692,403.688416 231.658173,403.688416   C231.658173,407.002411 231.658173,409.902924 231.658173,413.016052   C244.928452,413.016052 257.972137,413.016052 271.241974,413.285217   C272.593597,415.700928 273.719086,417.847473 274.917023,420.223572   C275.042389,420.835052 275.261505,421.034485 275.768799,421.358398   C276.298950,422.427521 276.707062,423.189606 277.053680,424.273224   C277.597443,425.467468 278.202667,426.340149 278.807922,427.212860  M177.923584,404.407257   C177.635315,404.213257 177.347046,404.019226 176.300903,403.511841   C161.370102,403.511841 146.439301,403.511841 131.044373,403.511841   C130.325241,406.587982 129.556198,409.877533 128.753937,413.309265   C145.411285,413.309265 161.579498,413.309265 177.828949,413.309265   C177.828949,410.260498 177.828949,407.622192 177.923584,404.407257  M160.296692,619.078674   C160.276321,608.760620 160.203918,598.442322 160.246948,588.124573   C160.325363,569.319214 160.523941,550.514038 160.500092,531.709045   C160.498001,530.065369 159.618866,527.379456 158.475830,526.945374   C149.214554,523.428650 139.792831,520.334534 130.894775,517.274780   C122.752052,551.378052 114.579437,585.606506 106.031387,620.546631   C106.484924,621.058167 106.935646,622.014282 107.392410,622.017151   C124.426880,622.125427 141.461990,622.165527 158.496429,622.086060   C159.030472,622.083557 159.558197,620.723450 160.296692,619.078674  M83.307594,119.374031   C63.781128,122.106621 52.427822,132.276733 48.278034,150.752991   C42.162533,177.981247 61.879684,201.926224 89.757378,201.623184   C115.232574,201.346252 140.719666,201.241348 166.190201,201.695145   C196.701813,202.238770 216.236816,171.002335 205.725677,145.169540   C199.160294,129.034027 186.661133,120.125267 168.816040,118.220970   C168.322952,117.841858 167.831696,117.134224 167.336487,117.131439   C153.123489,117.051750 138.909958,117.018326 124.697304,117.106117   C124.089561,117.109856 123.489395,118.340286 121.817429,119.182808   C118.939674,119.118561 116.061920,119.054314 113.405617,118.136070   C112.912651,117.779274 112.422508,117.115860 111.926292,117.111290   C103.389137,117.032761 94.850494,116.983757 86.314766,117.107323   C85.534470,117.118622 84.771820,118.349167 83.307594,119.374031  M242.073639,344.124634   C203.504913,344.124634 164.936203,344.124634 127.055862,344.124634   C124.209183,307.330933 121.422554,271.313385 118.639961,235.347931   C109.653320,235.347931 101.247360,235.347931 92.647804,235.347931   C92.647804,237.482254 92.537971,239.292526 92.664619,241.086105   C94.088455,261.250580 95.750397,281.400543 96.941620,301.578400   C98.105560,321.294189 99.252312,341.029785 99.596344,360.770844   C100.158363,393.020660 99.485435,425.256714 92.786087,457.000854   C84.084099,498.234253 75.300568,539.451477 66.287102,580.617554   C63.263020,594.429077 59.427261,608.062866 55.822945,622.330322   C60.382694,622.330322 64.514091,622.327087 68.645493,622.330872   C83.705727,622.344666 83.651062,622.333374 86.932343,607.645325   C96.019524,566.968262 105.361526,526.346802 114.211754,485.618439   C121.830200,450.558655 128.030487,415.278870 126.834244,379.147644   C126.787460,377.734619 126.986504,376.313507 127.074432,374.838654   C145.671463,374.838654 163.776810,374.838654 182.632690,374.838654   C182.632690,457.443512 182.632690,539.817627 182.632690,622.298584   C192.151657,622.298584 200.917343,622.298584 210.088531,622.298584   C210.088531,539.641968 210.088531,457.220459 210.088531,374.412231   C247.193634,374.412231 283.893250,374.412231 322.203613,374.412231   C317.988953,368.103485 314.803131,362.507477 310.818268,357.554291   C303.990265,349.067047 293.985077,346.442078 283.804810,343.418457   C283.036011,342.952148 282.270264,342.085388 281.497986,342.079620   C269.623688,341.990387 257.748108,341.968109 245.874557,342.094299   C244.909027,342.104523 243.956177,343.307770 242.073639,344.124634  z"/>
<path fill="#010101" opacity="1.000000" stroke="none" d=" M439.000000,412.531342   C438.460175,412.110016 437.443054,411.216400 437.449860,410.330597   C437.650970,383.992767 429.804199,359.747375 418.322113,336.456390   C402.335907,304.029053 378.514404,279.109955 346.643036,261.948608   C344.598114,260.847504 342.571472,259.712555 340.327026,258.478241   C355.226105,241.589325 365.106934,222.039902 370.826324,200.494339   C380.673859,163.397797 375.949554,128.000992 358.112610,94.013481   C332.689575,45.571045 293.315125,16.052231 239.747864,5.471371   C232.961502,4.130895 225.951126,3.943894 219.059647,3.099066   C217.751053,2.938646 216.513901,2.195607 215.621887,1.360695   C290.282104,1.000000 364.564209,1.000000 439.000000,1.000000   C439.000000,138.020859 439.000000,275.041779 439.000000,412.531342  z"/>
<path fill="#BBBDBF" opacity="1.000000" stroke="none" d=" M3.647694,539.997498   C3.542180,535.370850 3.547604,530.737305 3.262524,526.121704   C3.178654,524.763855 2.271970,523.456787 1.371189,522.563232   C1.000000,522.555542 1.000000,522.111084 1.371025,521.768799   C2.271080,520.197021 3.250757,518.525574 3.260263,516.848694   C3.369731,497.539642 3.317312,478.229797 3.337847,458.920197   C3.356602,441.282959 3.411973,423.645813 3.768212,406.099060   C7.464921,408.220825 8.409690,411.228363 8.058846,415.042816   C7.770417,418.178680 7.867487,421.370605 8.063449,424.520905   C8.148920,425.894928 8.817455,427.266724 9.384131,428.568604   C10.177732,430.391785 10.786311,432.457764 12.077625,433.866699   C14.435879,436.439697 16.894741,439.643463 19.949417,440.651611   C22.995970,441.657074 23.729591,438.255859 24.066032,435.323853   C25.673140,421.318207 20.581148,406.940704 27.590857,393.045868   C29.812378,388.642334 29.202841,382.786896 31.485388,377.421448   C35.397587,368.225342 28.152012,359.422333 26.988636,350.202850   C26.952909,349.919739 26.529140,349.705109 26.416826,349.409027   C25.592545,347.236084 24.546171,345.105286 24.064188,342.855255   C23.449774,339.987000 24.332750,336.073853 22.716425,334.308258   C20.066257,331.413361 20.324202,328.492859 19.896002,325.263123   C19.456383,321.947296 18.395891,318.662048 17.214523,315.510559   C15.986766,312.235260 15.444354,309.630219 19.998159,308.962555   C20.640753,308.868317 21.684715,308.762177 21.822639,308.392700   C23.555616,303.750092 26.841772,301.010468 31.229332,298.697327   C33.510750,297.494568 31.832506,283.492950 30.154539,281.098389   C29.111485,279.609894 28.475641,277.734528 28.041328,275.939789   C26.662746,270.242889 29.897778,265.729797 31.779926,260.753601   C32.811546,258.026123 33.721848,256.935089 36.469734,256.976044   C41.685398,257.053864 46.485405,256.990082 51.334667,260.530487   C54.196609,262.619965 56.135693,263.767395 56.037094,267.401611   C55.892700,272.723938 55.880024,278.057404 56.070305,283.376892   C56.131866,285.097961 56.943394,286.812439 57.527588,288.489594   C58.291603,290.683075 59.387299,292.781128 59.959145,295.017700   C61.650963,301.634583 63.142269,308.302643 64.775902,314.934937   C64.849663,315.234344 65.548195,315.379822 66.637169,315.960144   C67.375404,310.895294 68.059998,306.198456 68.792709,301.171539   C70.079491,301.431366 71.481750,301.714508 72.884018,301.997620   C73.920090,334.713989 76.041229,367.445129 75.596962,400.141388   C75.317650,420.698120 71.903534,441.317871 68.605331,461.700531   C64.743134,485.568542 59.479012,509.209656 54.408989,532.973389   C50.591522,532.999634 47.187622,532.966064 43.784729,533.010254   C33.259060,533.146912 31.343838,531.207153 32.045650,544.042542   C32.290680,548.523865 29.334972,550.745972 26.282372,552.599121   C23.373577,554.365051 19.774973,552.572937 20.155010,549.598816   C20.915890,543.644470 16.871771,540.438965 13.516073,536.419800   C12.504259,540.447144 12.149800,544.451538 11.671767,548.441162   C10.490324,558.301453 9.250023,568.154663 8.047019,578.012329   C8.007931,578.332642 8.009795,578.741699 8.173270,578.990723   C12.182755,585.096802 6.629565,589.872375 5.862831,595.378540   C5.210216,593.841187 5.022394,592.308472 5.019462,590.775391   C4.995266,578.123657 5.056945,565.471375 4.940675,552.820740   C4.925902,551.213501 4.034505,549.614380 3.549240,548.011475   C3.473505,547.251526 3.397768,546.491516 3.786849,545.341003   C6.706607,542.975525 7.345618,541.222107 3.647694,539.997498  z"/>
<path fill="#010101" opacity="1.000000" stroke="none" d=" M368.468658,628.000000   C369.262451,627.331970 370.488464,626.579407 371.795868,626.015625   C373.792908,625.154358 375.846222,624.423523 377.931763,623.261047   C383.592468,622.884766 389.197021,622.884766 395.946320,622.884766   C387.300323,603.296570 379.041077,584.584534 370.910400,566.163879   C406.699188,533.633667 428.469055,494.114655 435.094208,446.507538   C435.979523,440.145874 436.264679,433.702271 436.949768,427.309692   C437.059662,426.284393 437.813782,425.328125 438.635071,424.669983   C439.000000,492.558472 439.000000,560.116943 439.000000,628.000000   C415.646790,628.000000 392.292053,628.000000 368.468658,628.000000  z"/>
<path fill="#000202" opacity="1.000000" stroke="none" d=" M3.451206,406.008606   C3.411973,423.645813 3.356602,441.282959 3.337847,458.920197   C3.317312,478.229797 3.369731,497.539642 3.260263,516.848694   C3.250757,518.525574 2.271080,520.197021 1.371025,521.435486   C1.000000,348.998047 0.994762,176.996094 1.101725,4.994206   C1.102505,3.739419 -0.951526,0.686543 3.500000,1.000000   C3.823046,53.782932 3.646092,106.565865 3.481769,160.070892   C3.574601,161.524673 3.654801,162.256348 3.607724,163.429596   C3.533920,166.922409 3.587395,169.973633 3.511964,173.416702   C3.397301,198.878525 3.411545,223.948532 3.328785,249.435577   C3.302694,252.595627 3.373605,255.338623 3.350141,258.503448   C3.324024,264.925781 3.392284,270.926331 3.364730,277.372009   C3.327146,280.238495 3.385375,282.659851 3.347120,285.491699   C3.318117,292.271240 3.385598,298.640259 3.355726,305.467987   C3.352820,316.285950 3.447269,326.645233 3.422347,337.458130   C3.390586,350.287842 3.478196,362.663940 3.448394,375.491821   C3.381070,381.274048 3.431158,386.604462 3.376099,392.331268   C3.331037,397.154633 3.391122,401.581635 3.451206,406.008606  z"/>
<path fill="#010101" opacity="1.000000" stroke="none" d=" M217.468658,628.000000   C220.390793,627.069397 223.957748,624.948547 227.141098,625.419678   C239.200638,627.204468 250.842316,625.300659 262.483002,622.771423   C263.151794,622.626099 263.505371,621.030029 264.368469,619.588501   C265.743683,619.010315 266.756012,618.952759 267.768372,618.895142   C270.404816,622.309326 275.956299,623.020630 281.070587,621.059631   C283.380188,620.174133 286.061798,620.307251 288.477386,619.630981   C289.849152,619.246887 291.620209,618.459290 292.182251,617.337708   C294.323608,613.064453 298.174469,612.450500 301.873932,613.277893   C303.630310,613.670654 304.803101,616.672546 306.240265,618.492493   C305.936951,618.885620 305.633636,619.278687 305.330322,619.671814   C309.053711,620.114380 312.784485,620.983643 316.499054,620.919006   C327.345001,620.730408 338.104950,622.307373 349.113373,620.526733   C354.115601,619.717651 362.328125,618.934143 364.963989,627.636841   C315.979095,628.000000 266.958221,628.000000 217.468658,628.000000  z"/>
<path fill="#383D3E" opacity="1.000000" stroke="none" d=" M47.038361,2.751964   C37.237789,2.799066 27.437220,2.846167 17.823078,2.522140   C20.820627,2.092098 23.636827,2.119316 26.441683,1.954057   C30.631981,1.707169 34.814293,1.324759 39.000000,1.000000   C39.444447,1.000000 39.888889,1.000000 40.876747,1.300178   C43.292892,1.984226 45.165627,2.368095 47.038361,2.751964  z"/>
<path fill="#000202" opacity="1.000000" stroke="none" d=" M38.531422,1.000000   C34.814293,1.324759 30.631981,1.707169 26.441683,1.954057   C23.636827,2.119316 20.820627,2.092098 17.430332,2.224430   C16.756084,1.976733 16.661005,1.655616 16.782963,1.167249   C24.020948,1.000000 31.041895,1.000000 38.531422,1.000000  z"/>
<path fill="#000202" opacity="1.000000" stroke="none" d=" M61.545891,1.000000   C62.121826,1.530232 62.243656,2.060464 62.365486,2.590694   C58.656643,2.301278 54.947796,2.011862 51.619476,1.361223   C55.030594,1.000000 58.061188,1.000000 61.545891,1.000000  z"/>
<path fill="#000202" opacity="1.000000" stroke="none" d=" M47.480412,2.803986   C45.165627,2.368095 43.292892,1.984226 41.210079,1.300178   C43.700012,1.000000 46.400028,1.000000 49.550018,1.000000   C51.408813,3.970808 48.735374,2.372108 47.480412,2.803986  z"/>
<path fill="#010101" opacity="1.000000" stroke="none" d=" M165.625000,0.999999   C166.151016,1.526189 166.302032,2.052379 166.453049,2.578571   C165.049622,2.270331 163.646210,1.962090 162.621399,1.326924   C163.750000,1.000000 164.500000,1.000000 165.625000,0.999999  z"/>
<path fill="#010101" opacity="1.000000" stroke="none" d=" M182.666672,1.000000   C183.154114,1.528427 183.308228,2.056854 183.462341,2.585281   C182.390945,2.273358 181.319534,1.961436 180.624069,1.324757   C181.444443,1.000000 181.888901,1.000000 182.666672,1.000000  z"/>
<path fill="#BCC0C2" opacity="1.000000" stroke="none" d=" M3.565804,375.040039   C3.478196,362.663940 3.390586,350.287842 3.665513,337.453400   C4.352354,337.000214 4.676674,337.003876 5.001199,337.400787   C5.175415,339.095764 5.349442,340.396088 5.523468,341.696381   C6.016018,341.759705 6.508569,341.823029 7.001119,341.886353   C7.665021,340.351318 8.905592,338.812286 8.894957,337.281921   C8.843555,329.885559 8.303243,322.492859 8.238037,315.096191   C8.190736,309.730621 8.900317,304.352051 8.735458,298.995819   C8.609879,294.915771 7.816598,290.821411 6.900669,286.829773   C6.715985,286.024872 4.644944,285.652802 3.443601,285.081177   C3.385375,282.659851 3.327146,280.238495 3.792696,277.390045   C9.649113,275.012695 8.116853,269.876892 8.723808,266.151886   C9.120360,263.718170 7.017095,260.829437 5.823581,258.241333   C5.664270,257.895874 4.267972,258.120819 3.444517,258.081635   C3.373605,255.338623 3.302694,252.595627 3.655303,249.540894   C4.623548,250.661011 5.168271,252.092865 6.260901,254.964951   C7.051818,251.679108 7.859240,249.726334 7.943008,247.743011   C8.394414,237.055359 9.070574,226.353363 8.892600,215.669250   C8.692003,203.627136 7.661403,191.599030 7.007937,179.563965   C6.944831,178.401749 7.406291,176.990723 6.895355,176.125732   C6.162115,174.884430 4.758374,174.039185 3.640873,173.024872   C3.587395,169.973633 3.533920,166.922409 4.006639,163.426910   C8.350116,162.477524 7.899263,159.550507 7.972504,156.920868   C11.982442,152.259018 15.992378,147.597168 20.335318,142.915283   C14.715390,174.256836 24.765192,199.543365 49.921421,218.831802   C54.323154,222.206818 59.635220,224.394577 64.778275,227.726257   C65.977867,229.881622 66.926033,231.441406 67.874199,233.001190   C68.850662,242.719345 69.827118,252.437485 70.359726,262.650269   C69.326172,265.322266 68.736481,267.499603 68.146790,269.676941   C69.132805,269.715332 70.118820,269.753754 71.104836,269.792175   C71.359451,273.187317 71.656654,276.579956 71.859810,279.978149   C72.280937,287.022858 72.652100,294.070526 72.963913,301.557312   C71.481750,301.714508 70.079491,301.431366 68.792709,301.171539   C68.059998,306.198456 67.375404,310.895294 66.637169,315.960144   C65.548195,315.379822 64.849663,315.234344 64.775902,314.934937   C63.142269,308.302643 61.650963,301.634583 59.959145,295.017700   C59.387299,292.781128 58.291603,290.683075 57.527588,288.489594   C56.943394,286.812439 56.131866,285.097961 56.070305,283.376892   C55.880024,278.057404 55.892700,272.723938 56.037094,267.401611   C56.135693,263.767395 54.196609,262.619965 51.334667,260.530487   C46.485405,256.990082 41.685398,257.053864 36.469734,256.976044   C33.721848,256.935089 32.811546,258.026123 31.779926,260.753601   C29.897778,265.729797 26.662746,270.242889 28.041328,275.939789   C28.475641,277.734528 29.111485,279.609894 30.154539,281.098389   C31.832506,283.492950 33.510750,297.494568 31.229332,298.697327   C26.841772,301.010468 23.555616,303.750092 21.822639,308.392700   C21.684715,308.762177 20.640753,308.868317 19.998159,308.962555   C15.444354,309.630219 15.986766,312.235260 17.214523,315.510559   C18.395891,318.662048 19.456383,321.947296 19.896002,325.263123   C20.324202,328.492859 20.066257,331.413361 22.716425,334.308258   C24.332750,336.073853 23.449774,339.987000 24.064188,342.855255   C24.546171,345.105286 25.592545,347.236084 26.416826,349.409027   C26.529140,349.705109 26.952909,349.919739 26.988636,350.202850   C28.152012,359.422333 35.397587,368.225342 31.485388,377.421448   C29.202841,382.786896 29.812378,388.642334 27.590857,393.045868   C20.581148,406.940704 25.673140,421.318207 24.066032,435.323853   C23.729591,438.255859 22.995970,441.657074 19.949417,440.651611   C16.894741,439.643463 14.435879,436.439697 12.077625,433.866699   C10.786311,432.457764 10.177732,430.391785 9.384131,428.568604   C8.817455,427.266724 8.148920,425.894928 8.063449,424.520905   C7.867487,421.370605 7.770417,418.178680 8.058846,415.042816   C8.409690,411.228363 7.464921,408.220825 3.768212,406.099060   C3.391122,401.581635 3.331037,397.154633 3.837070,392.350098   C6.822971,392.222656 8.246515,391.395813 7.996608,388.698639   C7.633721,384.782043 7.467885,380.833008 6.798248,376.970581   C6.658494,376.164520 4.691003,375.675293 3.565804,375.040039  M29.739519,228.725174   C30.495487,230.253586 31.768942,231.739395 31.898954,233.319321   C32.164001,236.540192 34.093571,237.630508 36.528858,236.805008   C37.988792,236.310120 39.416313,234.223190 39.838032,232.588577   C40.248516,230.997513 39.661999,228.937012 38.953213,227.329575   C38.255985,225.748428 36.249035,223.118698 35.861919,223.291428   C33.391621,224.393646 29.044979,223.357880 29.739519,228.725174  M33.012470,246.549545   C33.404026,248.525681 33.558838,250.611465 34.381508,252.387955   C34.551537,252.755127 37.696850,252.461716 38.578869,251.580231   C39.460911,250.698715 39.757301,247.554626 39.388977,247.383316   C37.614494,246.557922 35.528717,246.401764 33.012470,246.549545  z"/>
<path fill="#B6B6B6" opacity="1.000000" stroke="none" d=" M275.646759,421.051331   C275.261505,421.034485 275.042389,420.835052 275.240753,420.070557   C276.323120,417.779663 277.154175,415.871338 278.242676,413.952637   C278.838165,413.983917 279.176178,414.025574 279.667847,414.381714   C280.515930,415.125366 281.210419,415.554565 282.302734,415.943146   C283.486664,415.933746 284.272766,415.964996 285.042175,416.003540   C285.025452,416.010864 285.008514,415.978363 285.008484,415.978363   C285.548523,417.281128 286.088562,418.583893 286.701355,420.062195   C281.036621,418.591400 280.961761,423.594971 278.936035,426.866089   C278.202667,426.340149 277.597443,425.467468 277.421448,424.260193   C278.172668,423.339172 278.494598,422.752716 278.816528,422.166260   C277.759949,421.794617 276.703369,421.422974 275.646759,421.051331  z"/>
<path fill="#BBBDBF" opacity="1.000000" stroke="none" d=" M7.678744,157.071686   C7.899263,159.550507 8.350116,162.477524 4.133918,162.985352   C3.654801,162.256348 3.574601,161.524673 3.652983,160.454315   C5.002706,159.151260 6.193847,158.186890 7.678744,157.071686  z"/>
<path fill="#D5D6D6" opacity="1.000000" stroke="none" d=" M288.125214,410.570923   C288.576294,409.549225 289.027344,408.527527 290.101196,407.425415   C290.807373,408.424957 290.890747,409.504883 290.974152,410.584808   C290.638367,411.206268 290.302582,411.827698 289.723999,412.726562   C289.307678,413.000031 289.134155,412.996063 288.960602,412.992065   C288.796265,413.030701 288.631958,413.069336 288.162903,412.732635   C287.947174,411.761841 288.036194,411.166382 288.125214,410.570923  z"/>
<path fill="#3D3F3E" opacity="1.000000" stroke="none" d=" M288.048309,410.136169   C288.036194,411.166382 287.947174,411.761841 287.916901,412.672668   C287.539368,413.056793 287.103119,413.125580 286.330017,412.894836   C285.637695,411.921082 285.282166,411.246826 284.926636,410.572571   C284.906769,410.235352 284.886902,409.898102 285.274231,409.422180   C286.409851,409.130554 287.138336,408.977600 287.866791,408.824646   C287.901672,409.116943 287.936523,409.409180 288.048309,410.136169  z"/>
<path fill="#252827" opacity="1.000000" stroke="none" d=" M291.162720,410.260620   C290.890747,409.504883 290.807373,408.424957 290.358429,407.154602   C290.383606,404.150818 291.551239,405.019379 292.909607,406.682495   C292.449860,407.977081 291.900604,408.956726 291.162720,410.260620  z"/>
<path fill="#B6B6B6" opacity="1.000000" stroke="none" d=" M284.590088,410.537659   C285.282166,411.246826 285.637695,411.921082 286.012543,412.990540   C286.031891,413.385773 286.239716,413.623505 285.710510,413.777527   C284.894897,413.996307 284.608459,414.061035 284.362152,414.128632   C284.402252,414.131531 284.421051,414.210907 284.207947,413.816010   C283.874664,412.539398 283.754486,411.657684 283.634308,410.775970   C283.840698,410.684906 284.047119,410.593842 284.590088,410.537659  z"/>
<path fill="#252827" opacity="1.000000" stroke="none" d=" M288.835999,413.318054   C289.134155,412.996063 289.307678,413.000031 289.741577,412.999817   C290.111694,413.624908 290.221436,414.254181 290.331177,414.883453   C289.791260,414.470306 289.251312,414.057190 288.835999,413.318054  z"/>
<path fill="#0E1614" opacity="1.000000" stroke="none" d=" M284.322052,414.125732   C284.608459,414.061035 284.894897,413.996307 285.621216,413.907715   C285.956390,414.550598 285.851715,415.217316 285.377747,415.931213   C285.008514,415.978363 285.025452,416.010864 284.840332,415.714294   C284.544159,414.987061 284.433105,414.556396 284.322052,414.125732  z"/>
<path fill="#FBFCFC" opacity="1.000000" stroke="none" d=" M283.895386,344.248474   C293.985077,346.442078 303.990265,349.067047 310.818268,357.554291   C314.803131,362.507477 317.988953,368.103485 322.203613,374.412231   C283.893250,374.412231 247.193634,374.412231 210.088531,374.412231   C210.088531,457.220459 210.088531,539.641968 210.088531,622.298584   C200.917343,622.298584 192.151657,622.298584 182.632690,622.298584   C182.632690,539.817627 182.632690,457.443512 182.632690,374.838654   C163.776810,374.838654 145.671463,374.838654 127.074432,374.838654   C126.986504,376.313507 126.787460,377.734619 126.834244,379.147644   C128.030487,415.278870 121.830200,450.558655 114.211754,485.618439   C105.361526,526.346802 96.019524,566.968262 86.932343,607.645325   C83.651062,622.333374 83.705727,622.344666 68.645493,622.330872   C64.514091,622.327087 60.382694,622.330322 55.822945,622.330322   C59.427261,608.062866 63.263020,594.429077 66.287102,580.617554   C75.300568,539.451477 84.084099,498.234253 92.786087,457.000854   C99.485435,425.256714 100.158363,393.020660 99.596344,360.770844   C99.252312,341.029785 98.105560,321.294189 96.941620,301.578400   C95.750397,281.400543 94.088455,261.250580 92.664619,241.086105   C92.537971,239.292526 92.647804,237.482254 92.647804,235.347931   C101.247360,235.347931 109.653320,235.347931 118.639961,235.347931   C121.422554,271.313385 124.209183,307.330933 127.055862,344.124634   C164.936203,344.124634 203.504913,344.124634 242.995483,344.138123   C257.243347,344.183899 270.569366,344.216187 283.895386,344.248474  z"/>
<path fill="#FDFDFD" opacity="1.000000" stroke="none" d=" M113.184166,118.990067   C116.061920,119.054314 118.939674,119.118561 122.737587,119.184731   C138.771973,119.129608 153.886185,119.072556 169.000412,119.015503   C186.661133,120.125267 199.160294,129.034027 205.725677,145.169540   C216.236816,171.002335 196.701813,202.238770 166.190201,201.695145   C140.719666,201.241348 115.232574,201.346252 89.757378,201.623184   C61.879684,201.926224 42.162533,177.981247 48.278034,150.752991   C52.427822,132.276733 63.781128,122.106621 84.118515,119.260300   C94.347687,119.094406 103.765923,119.042236 113.184166,118.990067  z"/>
<path fill="#FCFCFC" opacity="1.000000" stroke="none" d=" M267.996704,618.580933   C266.756012,618.952759 265.743683,619.010315 264.369629,619.198975   C254.776703,620.233459 245.547256,621.155579 236.312500,622.021057   C234.850052,622.158203 233.363724,622.040283 231.520874,622.040283   C231.422928,620.300842 231.268936,618.859253 231.271362,617.417847   C231.318527,589.336121 231.449570,561.254150 231.362198,533.172852   C231.351334,529.681152 232.278641,528.435791 235.799667,527.674622   C244.345459,525.827026 252.744553,523.300842 261.629333,521.422852   C267.891388,533.182068 273.672821,544.594666 279.590088,555.936401   C281.810059,560.191345 284.345764,564.281677 286.748199,568.586304   C286.758911,568.725525 286.864410,568.984192 286.912964,569.340881   C288.271515,571.897705 289.581573,574.097839 290.918457,576.650269   C291.337067,577.898438 291.674835,578.822693 292.128967,579.685669   C296.727081,588.423706 301.344177,597.151672 305.955963,605.882568   C293.378998,610.010559 280.802032,614.138611 267.996704,618.580933  z"/>
<path fill="#BEC1C2" opacity="1.000000" stroke="none" d=" M106.406830,619.835022   C114.579437,585.606506 122.752052,551.378052 130.894775,517.274780   C139.792831,520.334534 149.214554,523.428650 158.475830,526.945374   C159.618866,527.379456 160.498001,530.065369 160.500092,531.709045   C160.523941,550.514038 160.325363,569.319214 160.246948,588.124573   C160.203918,598.442322 160.276321,608.760620 159.809967,619.528320   C156.670364,618.304993 154.105347,615.386536 151.140472,619.664795   C150.830841,620.111633 149.571442,619.984253 148.753067,619.982178   C134.637619,619.946289 120.522232,619.888245 106.406830,619.835022  z"/>
<path fill="#C0C3C4" opacity="1.000000" stroke="none" d=" M3.435567,548.466675   C4.034505,549.614380 4.925902,551.213501 4.940675,552.820740   C5.056945,565.471375 4.995266,578.123657 5.019462,590.775391   C5.022394,592.308472 5.210216,593.841187 5.862831,595.378540   C6.629565,589.872375 12.182755,585.096802 8.173270,578.990723   C8.009795,578.741699 8.007931,578.332642 8.047019,578.012329   C9.250023,568.154663 10.490324,558.301453 11.671767,548.441162   C12.149800,544.451538 12.504259,540.447144 13.516073,536.419800   C16.871771,540.438965 20.915890,543.644470 20.155010,549.598816   C19.774973,552.572937 23.373577,554.365051 26.282372,552.599121   C29.334972,550.745972 32.290680,548.523865 32.045650,544.042542   C31.343838,531.207153 33.259060,533.146912 43.784729,533.010254   C47.187622,532.966064 50.591522,532.999634 54.190533,533.317322   C51.909416,544.683716 49.702595,555.799438 46.895489,566.761536   C42.180202,585.175293 37.083012,603.491272 32.132835,621.899170   C22.392019,621.899170 12.998204,621.899170 3.321898,621.899170   C3.321898,597.384888 3.321898,573.153381 3.435567,548.466675  z"/>
<path fill="#BBBEBF" opacity="1.000000" stroke="none" d=" M286.737488,568.447021   C284.345764,564.281677 281.810059,560.191345 279.590088,555.936401   C273.672821,544.594666 267.891388,533.182068 262.013153,521.442017   C271.166229,516.893738 280.362122,512.700989 289.941528,508.333405   C295.863739,521.395752 301.932617,534.781738 307.822510,548.805054   C306.165405,549.544128 304.687347,549.645935 302.763184,549.778503   C303.906342,552.569336 304.878418,554.942505 306.257172,558.308472   C302.113098,559.963928 298.150421,561.508972 294.219086,563.129944   C291.327393,564.322266 287.422974,564.135315 286.737488,568.447021  z"/>
<path fill="#BEC1C4" opacity="1.000000" stroke="none" d=" M286.748199,568.586304   C287.422974,564.135315 291.327393,564.322266 294.219086,563.129944   C298.150421,561.508972 302.113098,559.963928 306.257172,558.308472   C304.878418,554.942505 303.906342,552.569336 302.763184,549.778503   C304.687347,549.645935 306.165405,549.544128 307.849792,549.163513   C308.472900,549.661255 308.889648,550.437866 309.000183,551.614197   C308.178894,553.194275 307.663849,554.374512 307.148804,555.554810   C308.702301,556.038452 310.255768,556.522095 311.809265,557.005737   C317.534912,569.333008 323.260590,581.660217 329.226654,594.505066   C321.675690,598.305298 314.176849,602.079346 306.316956,605.867920   C301.344177,597.151672 296.727081,588.423706 292.128967,579.685669   C291.674835,578.822693 291.337067,577.898438 290.957214,576.231934   C292.186890,571.663452 292.615845,568.365479 286.864410,568.984192   C286.864410,568.984192 286.758911,568.725525 286.748199,568.586304  z"/>
<path fill="#B6BBBD" opacity="1.000000" stroke="none" d=" M177.828949,404.983887   C177.828949,407.622192 177.828949,410.260498 177.828949,413.309265   C161.579498,413.309265 145.411285,413.309265 128.753937,413.309265   C129.556198,409.877533 130.325241,406.587982 131.044373,403.511841   C146.439301,403.511841 161.370102,403.511841 176.736786,403.903473   C177.309372,404.602875 177.528137,404.832458 177.828949,404.983887  z"/>
<path fill="#C2C6C6" opacity="1.000000" stroke="none" d=" M271.015839,413.016052   C257.972137,413.016052 244.928452,413.016052 231.658173,413.016052   C231.658173,409.902924 231.658173,407.002411 231.658173,403.688416   C242.671692,403.688416 253.410110,403.688416 264.690735,404.125793   C265.863831,405.323517 266.494751,406.083832 267.125671,406.844147   C267.735321,407.732422 268.344940,408.620697 269.151672,409.874817   C269.372162,410.605652 269.395538,410.970612 269.418915,411.335602   C269.528839,411.329132 269.638733,411.322662 269.748627,411.316193   C269.718475,410.781616 269.688354,410.247070 269.658203,409.712524   C269.884003,409.798065 270.109772,409.883575 270.566681,410.512207   C270.870483,411.708893 270.943146,412.362488 271.015839,413.016052  z"/>
<path fill="#C2C7C7" opacity="1.000000" stroke="none" d=" M106.219109,620.190796   C120.522232,619.888245 134.637619,619.946289 148.753067,619.982178   C149.571442,619.984253 150.830841,620.111633 151.140472,619.664795   C154.105347,615.386536 156.670364,618.304993 159.706055,619.987183   C159.558197,620.723450 159.030472,622.083557 158.496429,622.086060   C141.461990,622.165527 124.426880,622.125427 107.392410,622.017151   C106.935646,622.014282 106.484924,621.058167 106.219109,620.190796  z"/>
<path fill="#0E1614" opacity="1.000000" stroke="none" d=" M283.850098,343.833466   C270.569366,344.216187 257.243347,344.183899 243.457397,344.054138   C243.956177,343.307770 244.909027,342.104523 245.874557,342.094299   C257.748108,341.968109 269.623688,341.990387 281.497986,342.079620   C282.270264,342.085388 283.036011,342.952148 283.850098,343.833466  z"/>
<path fill="#545756" opacity="1.000000" stroke="none" d=" M271.241974,413.285217   C270.943146,412.362488 270.870483,411.708893 270.855103,410.731293   C272.347198,409.075470 273.781952,407.743713 275.578430,406.439117   C275.940125,406.466278 275.961609,406.487091 275.891907,406.950012   C275.916656,407.710388 276.011139,408.007843 276.077057,408.247192   C276.048462,408.189026 276.129028,408.087524 275.901978,408.031769   C275.564728,408.085266 275.346497,408.272156 275.360718,408.291931   C275.527740,408.524231 275.729645,408.731415 275.977844,409.349182   C276.713715,409.829987 277.394073,409.906921 278.035980,410.008698   C277.997559,410.033539 277.939514,409.962799 278.254486,410.132416   C278.459351,410.756256 278.349213,411.210449 278.124451,411.816345   C278.009766,411.968048 277.697876,412.185669 277.361084,412.170044   C276.487610,412.520386 275.950867,412.886383 275.414154,413.252380   C276.292053,413.507233 277.169952,413.762115 278.023193,414.013794   C277.998535,414.010620 277.985199,413.962982 277.985199,413.962982   C277.154175,415.871338 276.323120,417.779663 275.168335,419.841034   C273.719086,417.847473 272.593597,415.700928 271.241974,413.285217  z"/>
<path fill="#0E1211" opacity="1.000000" stroke="none" d=" M168.908234,118.618240   C153.886185,119.072556 138.771973,119.129608 123.271729,119.092957   C123.489395,118.340286 124.089561,117.109856 124.697304,117.106117   C138.909958,117.018326 153.123489,117.051750 167.336487,117.131439   C167.831696,117.134224 168.322952,117.841858 168.908234,118.618240  z"/>
<path fill="#0E1211" opacity="1.000000" stroke="none" d=" M113.294891,118.563065   C103.765923,119.042236 94.347687,119.094406 84.465210,119.080048   C84.771820,118.349167 85.534470,117.118622 86.314766,117.107323   C94.850494,116.983757 103.389137,117.032761 111.926292,117.111290   C112.422508,117.115860 112.912651,117.779274 113.294891,118.563065  z"/>
<path fill="#3D3F3E" opacity="1.000000" stroke="none" d=" M275.961609,406.487091   C275.961609,406.487091 275.940125,406.466278 275.926147,406.475281   C279.682953,403.070587 280.577087,406.767883 282.137207,409.702454   C282.652405,410.593262 283.103729,410.758331 283.555054,410.923431   C283.555054,410.923431 283.583160,410.843048 283.608734,410.809509   C283.754486,411.657684 283.874664,412.539398 283.803772,413.720520   C283.060730,414.002991 282.508728,413.986084 281.989929,413.985291   C282.023163,414.001434 282.000122,414.071594 282.038116,413.736389   C281.372375,412.627136 280.668640,411.853119 279.905182,410.941803   C279.845459,410.804504 279.863983,410.505615 279.759399,410.158569   C278.423767,408.703369 277.192688,407.595215 275.961609,406.487091  z"/>
<path fill="#BBBDBF" opacity="1.000000" stroke="none" d=" M71.070053,269.368042   C70.118820,269.753754 69.132805,269.715332 68.146790,269.676941   C68.736481,267.499603 69.326172,265.322266 70.271523,263.068359   C70.763206,264.975861 70.899231,266.959930 71.070053,269.368042  z"/>
<path fill="#BBBEBF" opacity="1.000000" stroke="none" d=" M311.789917,556.686951   C310.255768,556.522095 308.702301,556.038452 307.148804,555.554810   C307.663849,554.374512 308.178894,553.194275 309.101135,551.940247   C310.262390,553.367065 311.016479,554.867615 311.789917,556.686951  z"/>
<path fill="#C0C3C4" opacity="1.000000" stroke="none" d=" M3.513950,540.398926   C7.345618,541.222107 6.706607,542.975525 3.908938,544.974609   C3.504209,543.599304 3.442208,542.199890 3.513950,540.398926  z"/>
<path fill="#BBBDBF" opacity="1.000000" stroke="none" d=" M67.912186,232.584320   C66.926033,231.441406 65.977867,229.881622 65.050858,227.920624   C68.173462,227.742355 68.435555,229.723465 67.912186,232.584320  z"/>
<path fill="#FEFEFE" opacity="1.000000" stroke="none" d=" M275.768799,421.358398   C276.703369,421.422974 277.759949,421.794617 278.816528,422.166260   C278.494598,422.752716 278.172668,423.339172 277.482971,423.938660   C276.707062,423.189606 276.298950,422.427521 275.768799,421.358398  z"/>
<path fill="#545756" opacity="1.000000" stroke="none" d=" M267.247070,406.549133   C266.494751,406.083832 265.863831,405.323517 265.148499,404.254425   C265.832245,404.715149 266.600372,405.484650 267.247070,406.549133  z"/>
<path fill="#D5D6D6" opacity="1.000000" stroke="none" d=" M287.767151,408.507782   C287.138336,408.977600 286.409851,409.130554 285.324463,409.171326   C285.025269,406.150574 286.202240,406.722534 287.767151,408.507782  z"/>
<path fill="#545756" opacity="1.000000" stroke="none" d=" M269.645630,409.719971   C269.688354,410.247070 269.718475,410.781616 269.748627,411.316193   C269.638733,411.322662 269.528839,411.329132 269.418915,411.335602   C269.395538,410.970612 269.372162,410.605652 269.490784,409.965027   C269.632812,409.689362 269.633087,409.727386 269.645630,409.719971  z"/>
<path fill="#9EA09F" opacity="1.000000" stroke="none" d=" M283.586121,410.470703   C283.103729,410.758331 282.652405,410.593262 282.078217,410.048096   C282.509308,409.784668 283.063263,409.901337 283.586121,410.470703  z"/>
<path fill="#B3B8BA" opacity="1.000000" stroke="none" d=" M177.876266,404.695557   C177.528137,404.832458 177.309372,404.602875 177.115723,404.060150   C177.347046,404.019226 177.635315,404.213257 177.876266,404.695557  z"/>
<path fill="#BBBDBF" opacity="1.000000" stroke="none" d=" M3.511967,173.416702   C4.758374,174.039185 6.162115,174.884430 6.895355,176.125732   C7.406291,176.990723 6.944831,178.401749 7.007937,179.563965   C7.661403,191.599030 8.692003,203.627136 8.892600,215.669250   C9.070574,226.353363 8.394414,237.055359 7.943008,247.743011   C7.859240,249.726334 7.051818,251.679108 6.260901,254.964951   C5.168271,252.092865 4.623548,250.661011 3.752306,249.123840   C3.411545,223.948532 3.397301,198.878525 3.511967,173.416702  z"/>
<path fill="#BBBDBF" opacity="1.000000" stroke="none" d=" M3.347116,285.491699   C4.644944,285.652802 6.715985,286.024872 6.900669,286.829773   C7.816598,290.821411 8.609879,294.915771 8.735458,298.995819   C8.900317,304.352051 8.190736,309.730621 8.238037,315.096191   C8.303243,322.492859 8.843555,329.885559 8.894957,337.281921   C8.905592,338.812286 7.665021,340.351318 7.001119,341.886353   C6.508569,341.823029 6.016018,341.759705 5.523468,341.696381   C5.349442,340.396088 5.175415,339.095764 5.002360,336.931427   C5.003404,327.284515 5.079111,318.500427 4.933725,309.719971   C4.907598,308.142029 3.969903,306.579132 3.453080,305.009308   C3.385598,298.640259 3.318117,292.271240 3.347116,285.491699  z"/>
<path fill="#BBBDBF" opacity="1.000000" stroke="none" d=" M3.350141,258.503448   C4.267972,258.120819 5.664270,257.895874 5.823581,258.241333   C7.017095,260.829437 9.120360,263.718170 8.723808,266.151886   C8.116853,269.876892 9.649113,275.012695 3.888511,276.944885   C3.392284,270.926331 3.324024,264.925781 3.350141,258.503448  z"/>
<path fill="#C0C3C4" opacity="1.000000" stroke="none" d=" M3.355726,305.467987   C3.969903,306.579132 4.907598,308.142029 4.933725,309.719971   C5.079111,318.500427 5.003404,327.284515 5.002172,336.536743   C4.676674,337.003876 4.352354,337.000214 3.784884,336.999786   C3.447269,326.645233 3.352820,316.285950 3.355726,305.467987  z"/>
<path fill="#BBBDBF" opacity="1.000000" stroke="none" d=" M3.448391,375.491821   C4.691003,375.675293 6.658494,376.164520 6.798248,376.970581   C7.467885,380.833008 7.633721,384.782043 7.996608,388.698639   C8.246515,391.395813 6.822971,392.222656 3.942217,391.953705   C3.431158,386.604462 3.381070,381.274048 3.448391,375.491821  z"/>
<path fill="#BBBDBF" opacity="1.000000" stroke="none" d=" M29.506269,228.420563   C29.044979,223.357880 33.391621,224.393646 35.861919,223.291428   C36.249035,223.118698 38.255985,225.748428 38.953213,227.329575   C39.661999,228.937012 40.248516,230.997513 39.838032,232.588577   C39.416313,234.223190 37.988792,236.310120 36.528858,236.805008   C34.093571,237.630508 32.164001,236.540192 31.898954,233.319321   C31.768942,231.739395 30.495487,230.253586 29.506269,228.420563  z"/>
<path fill="#BBBDBF" opacity="1.000000" stroke="none" d=" M33.282936,246.278839   C35.528717,246.401764 37.614494,246.557922 39.388977,247.383316   C39.757301,247.554626 39.460911,250.698715 38.578869,251.580231   C37.696850,252.461716 34.551537,252.755127 34.381508,252.387955   C33.558838,250.611465 33.404026,248.525681 33.282936,246.278839  z"/>
<path fill="#FBFCFC" opacity="1.000000" stroke="none" d=" M281.956726,413.969177   C282.508728,413.986084 283.060730,414.002991 284.016907,414.115417   C284.421051,414.210907 284.402252,414.131531 284.362152,414.128632   C284.433105,414.556396 284.544159,414.987061 284.857056,415.706970   C284.272766,415.964996 283.486664,415.933746 282.351562,415.609039   C281.987335,414.866760 281.972015,414.417969 281.956726,413.969177  z"/>
<path fill="#3D3F3E" opacity="1.000000" stroke="none" d=" M279.514221,414.067230   C279.176178,414.025574 278.838165,413.983917 278.242676,413.952637   C277.985199,413.962982 277.998535,414.010620 277.992371,413.703796   C277.890076,412.993195 277.793976,412.589447 277.697876,412.185669   C277.697876,412.185669 278.009766,411.968048 278.400452,411.930054   C279.161102,412.037384 279.531036,412.182678 279.929565,412.581787   C279.998077,413.168945 280.038025,413.502289 279.973694,413.982666   C279.869354,414.129730 279.514221,414.067230 279.514221,414.067230  z"/>
<path fill="#0E1614" opacity="1.000000" stroke="none" d=" M281.989929,413.985291   C281.972015,414.417969 281.987335,414.866760 281.953766,415.649658   C281.210419,415.554565 280.515930,415.125366 279.667847,414.381714   C279.514221,414.067230 279.869354,414.129730 280.292236,414.035461   C281.143433,413.984680 281.571777,414.028137 282.000122,414.071594   C282.000122,414.071594 282.023163,414.001434 281.989929,413.985291  z"/>
<path fill="#BBBEBF" opacity="1.000000" stroke="none" d=" M286.912964,569.340881   C292.615845,568.365479 292.186890,571.663452 290.930359,575.879639   C289.581573,574.097839 288.271515,571.897705 286.912964,569.340881  z"/>
<path fill="#030A09" opacity="1.000000" stroke="none" d=" M275.891907,406.950012   C277.192688,407.595215 278.423767,408.703369 279.389465,410.160767   C278.729218,410.327637 278.334381,410.145233 277.939514,409.962799   C277.939514,409.962799 277.997559,410.033539 278.001343,409.728271   C277.371979,409.050415 276.738800,408.677887 276.105652,408.305328   C276.011139,408.007843 275.916656,407.710388 275.891907,406.950012  z"/>
<path fill="#BBBDBF" opacity="1.000000" stroke="none" d=" M277.361084,412.170044   C277.793976,412.589447 277.890076,412.993195 278.016998,413.706970   C277.169952,413.762115 276.292053,413.507233 275.414154,413.252380   C275.950867,412.886383 276.487610,412.520386 277.361084,412.170044  z"/>
<path fill="#D5D6D6" opacity="1.000000" stroke="none" d=" M278.254486,410.132416   C278.334381,410.145233 278.729218,410.327637 279.494019,410.507812   C279.863983,410.505615 279.845459,410.804504 279.895905,411.254333   C279.931244,411.912140 279.916107,412.120056 279.901001,412.327942   C279.531036,412.182678 279.161102,412.037384 278.515137,411.778381   C278.349213,411.210449 278.459351,410.756256 278.254486,410.132416  z"/>
<path fill="#D5D6D6" opacity="1.000000" stroke="none" d=" M276.077057,408.247192   C276.738800,408.677887 277.371979,409.050415 278.039764,409.703430   C277.394073,409.906921 276.713715,409.829987 276.160828,409.166382   C276.235199,408.415619 276.182098,408.251556 276.129028,408.087524   C276.129028,408.087524 276.048462,408.189026 276.077057,408.247192  z"/>
<path fill="#030A09" opacity="1.000000" stroke="none" d=" M275.901978,408.031769   C276.182098,408.251556 276.235199,408.415619 276.105316,408.762451   C275.729645,408.731415 275.527740,408.524231 275.360718,408.291931   C275.346497,408.272156 275.564728,408.085266 275.901978,408.031769  z"/>
<path fill="#BBBEBF" opacity="1.000000" stroke="none" d=" M279.929565,412.581787   C279.916107,412.120056 279.931244,411.912140 279.955627,411.391663   C280.668640,411.853119 281.372375,412.627136 282.038116,413.736359   C281.571777,414.028137 281.143433,413.984680 280.396545,413.888428   C280.038025,413.502289 279.998077,413.168945 279.929565,412.581787  z"/>
</svg>
