<?xml version="1.0" standalone="no"?>
<!DOCTYPE svg PUBLIC "-//W3C//DTD SVG 20010904//EN"
 "http://www.w3.org/TR/2001/REC-SVG-20010904/DTD/svg10.dtd">
<svg version="1.0" xmlns="http://www.w3.org/2000/svg"
 width="1024.000000pt" height="1024.000000pt" viewBox="0 0 1024.000000 1024.000000"
 preserveAspectRatio="xMidYMid meet">
<metadata>
Created by potrace 1.14, written by Peter Selinger 2001-2017
</metadata>
<g transform="translate(0.000000,1024.000000) scale(0.100000,-0.100000)"
fill="#000000" stroke="none">
<path d="M0 5120 l0 -5120 5120 0 5120 0 0 5120 0 5120 -5120 0 -5120 0 0
-5120z m5400 3121 c151 -25 330 -80 460 -142 102 -49 263 -150 327 -206 17
-15 54 -47 81 -70 62 -53 191 -206 253 -300 84 -129 185 -342 225 -473 24 -81
54 -293 54 -386 0 -148 -38 -359 -89 -499 -57 -153 -129 -286 -217 -396 l-52
-66 36 -17 c20 -10 70 -38 112 -63 374 -228 649 -605 773 -1063 38 -140 38
-141 47 -325 17 -360 -55 -717 -207 -1019 -85 -168 -216 -349 -356 -491 l-98
-99 121 -271 c66 -149 120 -276 120 -283 0 -10 -33 -12 -141 -10 l-142 3 -62
135 c-34 74 -97 214 -138 310 -42 96 -101 231 -132 300 -32 69 -122 271 -202
450 -135 303 -351 773 -373 812 -14 25 -13 28 8 21 16 -6 16 -6 0 10 -9 9 -21
17 -26 17 -6 0 -6 10 1 25 7 14 19 25 27 25 13 0 13 1 0 10 -8 5 -11 12 -7 17
5 4 11 3 15 -3 4 -6 15 -13 25 -17 9 -3 17 -11 17 -17 0 -14 -17 -13 -23 3 -2
6 -8 9 -12 4 -5 -4 -3 -13 3 -19 8 -8 8 -15 1 -24 -7 -8 -7 -14 1 -19 5 -3 10
-1 10 5 0 6 7 18 15 27 12 12 19 13 30 3 11 -9 15 -9 15 -1 0 6 -3 11 -8 11
-4 0 -13 9 -20 20 -14 23 0 27 22 5 16 -16 31 -20 22 -6 -3 5 13 11 35 15 35
6 38 8 25 21 -19 19 -24 19 -29 -2 -3 -13 -5 -14 -6 -3 -1 22 19 48 26 33 7
-18 33 -16 33 3 0 9 5 12 11 8 13 -8 129 -245 245 -499 40 -88 77 -160 81
-159 15 1 102 158 133 238 62 160 85 274 85 421 0 190 -29 323 -102 475 -111
231 -276 366 -548 446 l-80 23 -647 1 c-356 0 -654 3 -663 6 -11 5 -15 21 -15
65 0 50 -11 236 -36 592 l-6 87 429 0 c387 0 435 2 503 19 177 45 293 124 415
284 123 161 173 400 124 599 -52 217 -207 413 -401 511 -181 91 -162 89 -993
85 l-700 -3 -65 -23 c-224 -80 -357 -194 -459 -391 -56 -108 -83 -226 -80
-349 2 -122 16 -173 81 -302 43 -87 66 -119 133 -185 79 -80 166 -141 236
-165 l37 -13 5 -81 c3 -45 12 -155 21 -246 8 -91 20 -268 26 -395 6 -126 16
-313 22 -414 15 -255 4 -741 -21 -926 -21 -147 -84 -495 -127 -700 -14 -66
-33 -163 -44 -215 -26 -131 -95 -425 -126 -540 -14 -52 -46 -168 -71 -257
l-46 -163 -141 0 -141 0 -2 3095 -3 3095 1108 0 c1042 0 1114 -1 1222 -19z
m-575 -1157 c70 -18 116 -43 168 -93 172 -163 177 -417 12 -590 -65 -68 -144
-108 -238 -121 -105 -15 -852 -12 -924 4 -191 41 -316 185 -330 378 -15 209
110 382 307 425 38 8 194 12 500 12 371 0 456 -2 505 -15z m-594 -1186 c1 -65
7 -153 18 -258 9 -85 17 -169 27 -285 2 -22 9 -145 16 -272 l12 -233 781 0
c515 0 795 -4 825 -11 25 -6 56 -13 69 -15 80 -16 188 -109 237 -205 19 -38
34 -71 34 -74 0 -3 -250 -5 -555 -5 l-555 0 0 -1240 0 -1240 -135 0 -135 0 -1
388 c0 213 -2 675 -5 1027 -2 352 -4 736 -4 853 l0 212 -275 0 -275 0 0 -152
c0 -158 -22 -373 -60 -598 -24 -145 -28 -168 -34 -195 -2 -11 -18 -92 -35
-180 -31 -158 -64 -310 -101 -475 -10 -47 -21 -96 -24 -110 -7 -38 -33 -147
-82 -350 -25 -102 -47 -192 -49 -200 -8 -37 -37 -148 -48 -177 l-11 -33 -133
0 -134 0 7 38 c4 20 13 54 20 74 19 55 165 669 188 788 2 14 9 45 15 70 5 25
12 56 15 70 3 14 11 57 19 95 8 39 22 104 31 145 8 41 18 86 21 100 3 14 10
48 15 75 6 28 12 61 15 75 3 14 8 41 11 60 3 19 7 42 9 50 2 8 7 35 10 60 3
25 8 52 11 60 2 9 12 76 23 150 41 297 33 823 -24 1635 -13 176 -19 294 -16
318 1 4 60 7 131 7 l130 0 1 -42z m370 -1648 l219 0 0 -45 0 -44 -242 -3
c-134 -2 -244 -3 -246 -2 -1 1 3 25 9 53 8 40 15 51 26 47 8 -3 113 -6 234 -6z
m1117 -36 c18 -20 32 -40 32 -45 0 -5 -86 -9 -195 -9 l-195 0 0 45 0 45 163 0
163 0 32 -36z m107 16 c3 -5 1 -10 -4 -10 -6 0 -11 5 -11 10 0 6 2 10 4 10 3
0 8 -4 11 -10z m84 -29 c-7 -2 -15 1 -17 8 -2 6 -10 11 -18 11 -9 0 -12 4 -9
10 4 6 16 3 32 -7 17 -12 21 -19 12 -22z m-126 -17 c7 -8 -3 -34 -13 -34 -5 0
-8 9 -7 20 1 20 8 25 20 14z m347 -1399 c54 -121 121 -269 149 -329 28 -60 50
-110 49 -112 -17 -14 -283 -139 -348 -162 -80 -28 -225 -69 -277 -78 -13 -2
-35 -6 -50 -9 -52 -10 -208 -25 -255 -25 l-48 0 0 465 c0 364 3 466 13 469 6
2 46 11 87 20 132 31 292 86 390 135 l95 47 48 -100 c27 -56 93 -200 147 -321z
m-1694 301 c49 -19 115 -42 147 -52 l57 -18 0 -473 0 -473 -271 0 c-253 0
-270 1 -265 18 7 20 94 368 100 397 3 11 19 81 36 155 26 116 100 465 100 476
0 7 6 5 96 -30z"/>
<path d="M5930 4150 c0 -5 5 -10 11 -10 5 0 7 5 4 10 -3 6 -8 10 -11 10 -2 0
-4 -4 -4 -10z"/>
<path d="M5800 4140 c0 -5 5 -10 10 -10 6 0 10 5 10 10 0 6 -4 10 -10 10 -5 0
-10 -4 -10 -10z"/>
<path d="M5871 4114 c0 -11 3 -14 6 -6 3 7 2 16 -1 19 -3 4 -6 -2 -5 -13z"/>
</g>
</svg>
